<mxfile host="app.diagrams.net" modified="2023-01-27T23:58:45.846Z" agent="5.0 (Windows NT 10.0; Win64; x64) AppleWebKit/537.36 (KHTML, like Gecko) Chrome/109.0.0.0 Safari/537.36" etag="egoxUh5X1Kc3ROeX-LP7" version="20.8.11" type="github" pages="2">
  <diagram id="C5RBs43oDa-KdzZeNtuy" name="Page-1">
    <mxGraphModel dx="883" dy="826" grid="1" gridSize="10" guides="1" tooltips="1" connect="1" arrows="1" fold="1" page="1" pageScale="1" pageWidth="827" pageHeight="1169" math="0" shadow="0">
      <root>
        <mxCell id="WIyWlLk6GJQsqaUBKTNV-0" />
        <mxCell id="WIyWlLk6GJQsqaUBKTNV-1" parent="WIyWlLk6GJQsqaUBKTNV-0" />
        <mxCell id="4MD6gl5W2jQwOEzOxGMi-15" value="" style="edgeStyle=orthogonalEdgeStyle;rounded=0;orthogonalLoop=1;jettySize=auto;html=1;" edge="1" parent="WIyWlLk6GJQsqaUBKTNV-1" source="4MD6gl5W2jQwOEzOxGMi-0" target="4MD6gl5W2jQwOEzOxGMi-6">
          <mxGeometry relative="1" as="geometry" />
        </mxCell>
        <mxCell id="4MD6gl5W2jQwOEzOxGMi-0" value="main" style="ellipse;whiteSpace=wrap;html=1;" vertex="1" parent="WIyWlLk6GJQsqaUBKTNV-1">
          <mxGeometry x="500" y="282.5" width="150" height="95" as="geometry" />
        </mxCell>
        <mxCell id="4MD6gl5W2jQwOEzOxGMi-19" value="" style="edgeStyle=orthogonalEdgeStyle;rounded=0;orthogonalLoop=1;jettySize=auto;html=1;" edge="1" parent="WIyWlLk6GJQsqaUBKTNV-1" source="4MD6gl5W2jQwOEzOxGMi-1" target="4MD6gl5W2jQwOEzOxGMi-2">
          <mxGeometry relative="1" as="geometry" />
        </mxCell>
        <mxCell id="4MD6gl5W2jQwOEzOxGMi-1" value="Author: Dana Rodriguez&lt;br&gt;Created on Jan 27th 2023&lt;br&gt;Purpose: Size of Shapes" style="rounded=1;whiteSpace=wrap;html=1;" vertex="1" parent="WIyWlLk6GJQsqaUBKTNV-1">
          <mxGeometry x="180" y="90" width="230" height="90" as="geometry" />
        </mxCell>
        <mxCell id="4MD6gl5W2jQwOEzOxGMi-10" value="" style="edgeStyle=orthogonalEdgeStyle;rounded=0;orthogonalLoop=1;jettySize=auto;html=1;" edge="1" parent="WIyWlLk6GJQsqaUBKTNV-1" source="4MD6gl5W2jQwOEzOxGMi-2" target="4MD6gl5W2jQwOEzOxGMi-3">
          <mxGeometry relative="1" as="geometry" />
        </mxCell>
        <mxCell id="4MD6gl5W2jQwOEzOxGMi-2" value="System Libraries&lt;br&gt;I/O Object Standard&amp;nbsp;&lt;br&gt;Namespace" style="rounded=1;whiteSpace=wrap;html=1;" vertex="1" parent="WIyWlLk6GJQsqaUBKTNV-1">
          <mxGeometry x="140" y="290" width="190" height="90" as="geometry" />
        </mxCell>
        <mxCell id="4MD6gl5W2jQwOEzOxGMi-11" value="" style="edgeStyle=orthogonalEdgeStyle;rounded=0;orthogonalLoop=1;jettySize=auto;html=1;" edge="1" parent="WIyWlLk6GJQsqaUBKTNV-1" source="4MD6gl5W2jQwOEzOxGMi-3" target="4MD6gl5W2jQwOEzOxGMi-4">
          <mxGeometry relative="1" as="geometry" />
        </mxCell>
        <mxCell id="4MD6gl5W2jQwOEzOxGMi-3" value="User Libraries&amp;nbsp;&lt;br&gt;None" style="rounded=1;whiteSpace=wrap;html=1;" vertex="1" parent="WIyWlLk6GJQsqaUBKTNV-1">
          <mxGeometry x="140" y="420" width="190" height="80" as="geometry" />
        </mxCell>
        <mxCell id="4MD6gl5W2jQwOEzOxGMi-12" value="" style="edgeStyle=orthogonalEdgeStyle;rounded=0;orthogonalLoop=1;jettySize=auto;html=1;" edge="1" parent="WIyWlLk6GJQsqaUBKTNV-1" source="4MD6gl5W2jQwOEzOxGMi-4" target="4MD6gl5W2jQwOEzOxGMi-5">
          <mxGeometry relative="1" as="geometry" />
        </mxCell>
        <mxCell id="4MD6gl5W2jQwOEzOxGMi-4" value="Global Constants&lt;br&gt;None" style="rounded=1;whiteSpace=wrap;html=1;" vertex="1" parent="WIyWlLk6GJQsqaUBKTNV-1">
          <mxGeometry x="140" y="545" width="190" height="80" as="geometry" />
        </mxCell>
        <mxCell id="4MD6gl5W2jQwOEzOxGMi-13" style="edgeStyle=orthogonalEdgeStyle;rounded=0;orthogonalLoop=1;jettySize=auto;html=1;entryX=0.5;entryY=0;entryDx=0;entryDy=0;" edge="1" parent="WIyWlLk6GJQsqaUBKTNV-1" source="4MD6gl5W2jQwOEzOxGMi-5" target="4MD6gl5W2jQwOEzOxGMi-0">
          <mxGeometry relative="1" as="geometry" />
        </mxCell>
        <mxCell id="4MD6gl5W2jQwOEzOxGMi-5" value="Function Prototypes&lt;br&gt;None" style="rounded=1;whiteSpace=wrap;html=1;" vertex="1" parent="WIyWlLk6GJQsqaUBKTNV-1">
          <mxGeometry x="140" y="670" width="190" height="110" as="geometry" />
        </mxCell>
        <mxCell id="4MD6gl5W2jQwOEzOxGMi-16" value="" style="edgeStyle=orthogonalEdgeStyle;rounded=0;orthogonalLoop=1;jettySize=auto;html=1;" edge="1" parent="WIyWlLk6GJQsqaUBKTNV-1" source="4MD6gl5W2jQwOEzOxGMi-6" target="4MD6gl5W2jQwOEzOxGMi-7">
          <mxGeometry relative="1" as="geometry" />
        </mxCell>
        <mxCell id="4MD6gl5W2jQwOEzOxGMi-6" value="Declare Variables&lt;br&gt;&lt;div&gt;unsigned short x;&lt;/div&gt;&lt;div&gt;&amp;nbsp; &amp;nbsp; char shape;&lt;/div&gt;" style="rounded=1;whiteSpace=wrap;html=1;" vertex="1" parent="WIyWlLk6GJQsqaUBKTNV-1">
          <mxGeometry x="480" y="430" width="190" height="80" as="geometry" />
        </mxCell>
        <mxCell id="4MD6gl5W2jQwOEzOxGMi-17" value="" style="edgeStyle=orthogonalEdgeStyle;rounded=0;orthogonalLoop=1;jettySize=auto;html=1;" edge="1" parent="WIyWlLk6GJQsqaUBKTNV-1" source="4MD6gl5W2jQwOEzOxGMi-7" target="4MD6gl5W2jQwOEzOxGMi-8">
          <mxGeometry relative="1" as="geometry" />
        </mxCell>
        <mxCell id="4MD6gl5W2jQwOEzOxGMi-7" value="&quot;Create a numbered shape that can be sized.&quot;&lt;br&gt;&quot;Input an integer number [1,50] and a character [x,b,f].&quot;" style="shape=parallelogram;perimeter=parallelogramPerimeter;whiteSpace=wrap;html=1;fixedSize=1;" vertex="1" parent="WIyWlLk6GJQsqaUBKTNV-1">
          <mxGeometry x="430" y="570" width="340" height="120" as="geometry" />
        </mxCell>
        <mxCell id="4MD6gl5W2jQwOEzOxGMi-18" value="" style="edgeStyle=orthogonalEdgeStyle;rounded=0;orthogonalLoop=1;jettySize=auto;html=1;" edge="1" parent="WIyWlLk6GJQsqaUBKTNV-1" source="4MD6gl5W2jQwOEzOxGMi-8" target="4MD6gl5W2jQwOEzOxGMi-9">
          <mxGeometry relative="1" as="geometry" />
        </mxCell>
        <mxCell id="4MD6gl5W2jQwOEzOxGMi-8" value="display&lt;br&gt;&lt;br&gt;x, shape" style="shape=parallelogram;perimeter=parallelogramPerimeter;whiteSpace=wrap;html=1;fixedSize=1;" vertex="1" parent="WIyWlLk6GJQsqaUBKTNV-1">
          <mxGeometry x="500" y="730" width="200" height="100" as="geometry" />
        </mxCell>
        <mxCell id="4MD6gl5W2jQwOEzOxGMi-9" value="page 2" style="ellipse;whiteSpace=wrap;html=1;aspect=fixed;" vertex="1" parent="WIyWlLk6GJQsqaUBKTNV-1">
          <mxGeometry x="560" y="890" width="80" height="80" as="geometry" />
        </mxCell>
      </root>
    </mxGraphModel>
  </diagram>
  <diagram id="DE1R_0SiZ5mqrds_HxIH" name="Page-2">
    <mxGraphModel dx="883" dy="826" grid="1" gridSize="10" guides="1" tooltips="1" connect="1" arrows="1" fold="1" page="1" pageScale="1" pageWidth="850" pageHeight="1100" math="0" shadow="0">
      <root>
        <mxCell id="0" />
        <mxCell id="1" parent="0" />
      </root>
    </mxGraphModel>
  </diagram>
</mxfile>
